<?xml version="1.0" encoding="utf-8"?>
<!-- Generator: Adobe Illustrator 16.0.0, SVG Export Plug-In . SVG Version: 6.00 Build 0)  -->
<!DOCTYPE svg PUBLIC "-//W3C//DTD SVG 1.1//EN" "http://www.w3.org/Graphics/SVG/1.1/DTD/svg11.dtd">
<svg version="1.1" id="Isolation_Mode" xmlns="http://www.w3.org/2000/svg" xmlns:xlink="http://www.w3.org/1999/xlink" x="0px"
	 y="0px" width="220px" height="43px" viewBox="0 0 220 43" enable-background="new 0 0 220 43" xml:space="preserve">
<g>
	<path fill="#FFFFFF" d="M59.304,7.414c-7.858,0-11.678,4.542-11.678,13.886c0,9.445,3.929,14.235,11.678,14.235
		c7.746,0,11.676-4.79,11.676-14.235C70.98,11.956,67.16,7.414,59.304,7.414 M64.089,21.3c0,6.565-1.83,7.885-4.785,7.885
		c-2.956,0-4.787-1.32-4.787-7.885c0-6.333,1.683-7.533,4.787-7.533C62.334,13.767,64.089,14.999,64.089,21.3"/>
	<polygon fill="#FFFFFF" points="91.265,21.915 82.564,7.765 76.621,7.765 76.621,35.185 83.236,35.185 83.236,21.377 
		91.988,35.185 97.916,35.185 97.916,7.765 91.265,7.765 	"/>
	<rect x="103.791" y="28.657" fill="#FFFFFF" width="19.498" height="6.527"/>
	<rect x="103.791" y="18.294" fill="#FFFFFF" width="19.482" height="6.527"/>
	<rect x="103.792" y="7.766" fill="#FFFFFF" width="19.456" height="6.527"/>
	<polygon fill="#FFFFFF" points="128.24,35.185 136.01,35.185 138.793,30.667 134.856,24.5 	"/>
	<polygon fill="#FFFFFF" points="153.687,7.769 146.068,7.769 137.111,21.555 146.068,35.185 153.687,35.185 144.855,21.555 	"/>
	<polygon fill="#FFFFFF" points="139.055,11.701 136.486,7.766 128.475,7.766 135.088,17.96 	"/>
	<rect x="158.819" y="7.765" fill="#FFFFFF" width="6.718" height="27.42"/>
	<polygon fill="#FFFFFF" points="180.395,7.59 171.189,35.185 178.285,35.185 183.554,19.022 188.607,35.185 195.903,35.185 
		186.893,7.59 	"/>
	<polygon fill="#FFFFFF" points="207.679,28.657 207.679,7.766 200.962,7.766 200.962,35.185 220,35.185 220,28.657 	"/>
	<path fill="#FFFFFF" d="M25.705,21.545L34.67,7.757h7.331V0H0v43h42.001v-7.796H34.67L25.705,21.545z M23.335,35.204h-7.758V7.756
		h7.758V35.204z"/>
	<polygon fill="#FFFFFF" points="34.226,21.545 42.001,33.559 42.001,9.399 	"/>
</g>
</svg>
